<svg xmlns="http://www.w3.org/2000/svg" width="1130.049" height="192.814" viewBox="0 0 1130.049 192.814">
  <g id="myfoodprintlogo-1080" transform="translate(-9 -10)">
    <g id="Layer_1_1_">
      <g id="Group_284" transform="translate(-1740 -1504.068)">
        <g id="Group_276" transform="translate(1991 1504.068)">
          <g id="Group_273" transform="translate(11)">
            <g id="Group_289" data-name="Group 289">
              <path id="Path_246" data-name="Path 246" d="M77.451,168H59.479L31.958,94.459V168H11.279V50.169H32.785L68.277,151.081,101.89,50.169h21.431V168H102.642V94.459Z" transform="translate(-1)" fill="#4b4b4c"/>
              <path id="Path_247" data-name="Path 247" d="M185.211,97h.154l-13.982,49.87L155.779,97l-20.391,0,26.746,65.659a26.829,26.829,0,0,1-.714,3.534A22.3,22.3,0,0,1,160.4,169.2q-1.654,4.512-3.309,8.046a28.75,28.75,0,0,1-3.572,5.9,14.106,14.106,0,0,1-4.211,3.609,10.822,10.822,0,0,1-5.226,1.24,34.472,34.472,0,0,1-4.136-.264q-2.183-.264-4.211-.639a37,37,0,0,1-3.8-.9q-1.767-.528-2.9-.978L125.363,197.1a40.554,40.554,0,0,0,8.835,4.061,33.9,33.9,0,0,0,10.715,1.654,32.81,32.81,0,0,0,11.994-1.917,24.4,24.4,0,0,0,8.459-5.564,36.96,36.96,0,0,0,6.392-8.986q2.781-5.34,5.79-12.182L205.839,97Z" transform="translate(3)" fill="#4b4b4c"/>
            </g>
            <g id="Group_290" data-name="Group 290" transform="translate(9)">
              <path id="Path_248" data-name="Path 248" d="M283.273,65.434h-46.1V97.693h36.7v15.189h-36.7V168H216.5V50.169h66.773Z" fill="#85c020"/>
            </g>
            <g id="Group_291" data-name="Group 291">
              <path id="Path_249" data-name="Path 249" d="M525.709,96.545a30.177,30.177,0,0,1,8.959,1.154,21.349,21.349,0,0,1,6.108,2.918V64.646h17.646v81.105q0,2.85.271,6.041t.882,6.481a67.16,67.16,0,0,0,1.562,6.55A43.336,43.336,0,0,0,563.445,171H546.953a9.21,9.21,0,0,1-1.392-1.426q-.714-.881-1.392-1.9a18,18,0,0,1-1.222-2.138,17.8,17.8,0,0,1-.882-2.138,26.278,26.278,0,0,1-8.45,6.617,24.456,24.456,0,0,1-10.894,2.342,31.365,31.365,0,0,1-13.744-2.918,30.021,30.021,0,0,1-10.282-8.01,35.454,35.454,0,0,1-6.414-12.08,50.037,50.037,0,0,1-2.206-15.136,41.358,41.358,0,0,1,2.443-14.117,36.775,36.775,0,0,1,7.059-12.013,34.867,34.867,0,0,1,11.2-8.383A34.173,34.173,0,0,1,525.709,96.545Zm.136,62.441a31.86,31.86,0,0,0,7.6-.848,29.388,29.388,0,0,0,7.33-3.021V112.63a32.763,32.763,0,0,0-6.04-2.036,30.082,30.082,0,0,0-6.855-.747,17.136,17.136,0,0,0-8.179,1.9,18.232,18.232,0,0,0-6.007,5.125,23.465,23.465,0,0,0-3.732,7.533,31.717,31.717,0,0,0-1.289,9.129A42.131,42.131,0,0,0,509.727,143a27.8,27.8,0,0,0,3.189,8.145,17.534,17.534,0,0,0,5.362,5.7A13.363,13.363,0,0,0,525.845,158.986Z" fill="#85c020"/>
              <path id="Path_250" data-name="Path 250" d="M594.484,97.7a24.774,24.774,0,0,1,.882,2.885,27.875,27.875,0,0,1,.679,3.631q1.629-1.425,3.461-2.816a22.741,22.741,0,0,1,4.072-2.443,26.888,26.888,0,0,1,4.988-1.73,26.007,26.007,0,0,1,6.211-.68q8.821,0,14.8,3.055a25.629,25.629,0,0,1,9.536,8.145,33.206,33.206,0,0,1,5.09,11.742,61.7,61.7,0,0,1,1.527,13.846,53.62,53.62,0,0,1-2.07,14.965,37.911,37.911,0,0,1-6.244,12.624,30.65,30.65,0,0,1-10.52,8.722,32.211,32.211,0,0,1-14.9,3.258,24.031,24.031,0,0,1-15.271-5.227v34.072H579.077V111.615q0-.407-.034-2.037t-.135-3.7q-.1-2.07-.34-4.31a22.425,22.425,0,0,0-.713-3.869h16.629Zm16.085,12.149a27.491,27.491,0,0,0-6.89.849,31.426,31.426,0,0,0-6.956,2.817v41.943a16.7,16.7,0,0,0,3.632,2.309,18.331,18.331,0,0,0,3.664,1.221,21.235,21.235,0,0,0,3.8.476q1.934.069,3.971.067a10.894,10.894,0,0,0,6.957-2.273,17.09,17.09,0,0,0,4.717-6.006,32.716,32.716,0,0,0,2.715-8.484,53.053,53.053,0,0,0,.883-9.705,42.823,42.823,0,0,0-.951-9.3,22.783,22.783,0,0,0-2.918-7.364,13.932,13.932,0,0,0-5.125-4.818A15.347,15.347,0,0,0,610.569,109.848Z" fill="#85c020"/>
              <path id="Path_251" data-name="Path 251" d="M675.205,97.7a129.917,129.917,0,0,1,2.035,14.66,23.054,23.054,0,0,1,3.733-5.837,32.8,32.8,0,0,1,5.43-5.057,29.488,29.488,0,0,1,6.278-3.563,16.473,16.473,0,0,1,6.277-1.357,23.959,23.959,0,0,1,5.566.476,20.329,20.329,0,0,1,2.918.95l-3.8,15.949a17.962,17.962,0,0,0-4.038-1.391,18.9,18.9,0,0,0-3.7-.373,19.166,19.166,0,0,0-10.825,2.986,23.422,23.422,0,0,0-7.364,7.873L677.852,171H660.07V110.052q0-1.153-.034-2.919t-.067-3.6q-.035-1.833-.136-3.428T659.6,97.7h15.61Z" fill="#85c020"/>
              <path id="Path_252" data-name="Path 252" d="M714.863,74.759a9.463,9.463,0,0,1,.78-3.868,9.7,9.7,0,0,1,2.1-3.055,9.375,9.375,0,0,1,3.122-2,10.3,10.3,0,0,1,3.835-.713,9.542,9.542,0,0,1,6.992,2.884,8.978,8.978,0,0,1,1.968,3.122,10.592,10.592,0,0,1,.679,3.767,10.308,10.308,0,0,1-.679,3.732,9.379,9.379,0,0,1-1.968,3.123,9.884,9.884,0,0,1-3.055,2.172,9.286,9.286,0,0,1-3.937.814,8.86,8.86,0,0,1-3.835-.849,10.361,10.361,0,0,1-3.122-2.24,10.85,10.85,0,0,1-2.1-3.189A9.2,9.2,0,0,1,714.863,74.759Zm.882,22.94h17.646V171H715.745Z" fill="#85c020"/>
              <path id="Path_253" data-name="Path 253" d="M752.011,110.256q0-2.172-.1-5.6a43.636,43.636,0,0,0-.78-6.957h16.629a8.644,8.644,0,0,1,.406,1.323c.137.566.282,1.178.441,1.833s.294,1.335.407,2.036.215,1.347.306,1.935a29.625,29.625,0,0,1,3.937-2.986,34.438,34.438,0,0,1,5.057-2.682,33.231,33.231,0,0,1,5.938-1.9,30.426,30.426,0,0,1,6.651-.713,31.228,31.228,0,0,1,10.622,1.766,25.011,25.011,0,0,1,8.552,5.09,23.819,23.819,0,0,1,5.735,8.145,27.084,27.084,0,0,1,2.1,10.928V171H800.267V125.8a27.245,27.245,0,0,0-.883-7.466,12.017,12.017,0,0,0-2.612-4.921,10.1,10.1,0,0,0-4.242-2.715,18.021,18.021,0,0,0-5.769-.849,29.4,29.4,0,0,0-4.072.306,36.864,36.864,0,0,0-4.446.917q-2.276.609-4.479,1.425a32.241,32.241,0,0,0-4.1,1.833V171H752.013V110.256Z" fill="#85c020"/>
              <path id="Path_254" data-name="Path 254" d="M826.962,101.364,837.753,97.7l4.615-18.936H855.4V97.7h17.986l-1.629,12.624H855.4v37.4a25.966,25.966,0,0,0,.441,5.226,10.347,10.347,0,0,0,1.256,3.394,4.624,4.624,0,0,0,2.035,1.832,6.768,6.768,0,0,0,2.783.543,27.28,27.28,0,0,0,4.921-.509,35.947,35.947,0,0,0,6.142-1.8l4.072,8.619a39.57,39.57,0,0,1-9.6,5.565,25.306,25.306,0,0,1-9.2,1.833,27.011,27.011,0,0,1-10.045-1.6,14.991,14.991,0,0,1-6.278-4.547,17.247,17.247,0,0,1-3.258-7.16,44.544,44.544,0,0,1-.916-9.435V110.322H826.961v-8.958Z" fill="#85c020"/>
            </g>
            <g id="Group_272" transform="translate(314.818 105.41)">
              <g id="Group_269" transform="translate(0 59.809) rotate(-90)">
                <path id="Path_240" d="M3.609,58.641H39.567S58.747,56.5,59.482,42.375s0-44.359,0-44.359H17.109S1.954-3.084,1.631,12.688s0,45.953,0,45.953" fill="none" stroke="#85c020" stroke-linecap="square" stroke-width="15"/>
                <path id="Path_241" d="M6.629,55.021l25.723-26.7" fill="none" stroke="#85c020" stroke-linecap="square" stroke-width="9"/>
              </g>
              <g id="Group_271" transform="translate(92.02 59.81) rotate(-90)">
                <path id="Path_240-2" d="M3.61-2H39.568S58.748.141,59.483,14.266s0,44.358,0,44.358H17.11S1.955,59.725,1.632,43.952,1.632-2,1.632-2" fill="none" stroke="#85c020" stroke-linecap="square" stroke-width="15"/>
                <path id="Path_241-2" d="M5.751,2.766,30.372,28.323" fill="none" stroke="#85c020" stroke-linecap="square" stroke-width="9"/>
              </g>
            </g>
          </g>
        </g>
        <g id="Group_278" transform="translate(1749 1514.068)">
          <path id="Rectangle_88" d="M20,0H163a20,20,0,0,1,20,20V164a20,20,0,0,1-20,20H20A20,20,0,0,1,0,164V20A20,20,0,0,1,20,0Z" fill="#85c020"/>
          <g id="Group_275" transform="translate(28 61)">
            <g id="Group_280">
              <g id="Group_268" transform="translate(62.398 61.977) rotate(180)">
                <path id="Path_240-3" d="M3.762,0H41.28S61.289,2.188,62.057,16.623s0,45.335,0,45.335H17.848S2.036,63.084,1.7,46.958,1.7-.006,1.7-.006" fill="none" stroke="#fff" stroke-linecap="square" stroke-width="15"/>
                <path id="Path_241-3" d="M29.11,32.127,3.346,5.385" fill="none" stroke="#fff" stroke-linecap="square" stroke-width="9"/>
              </g>
              <g id="Group_274" transform="translate(64.955)">
                <path id="Path_240-4" d="M3.762,61.977H41.28s20.009-2.188,20.777-16.623,0-45.335,0-45.335H17.848S2.036-1.107,1.7,15.019s0,46.958,0,46.958" fill="none" stroke="#fff" stroke-linecap="square" stroke-width="15"/>
                <path id="Path_241-4" d="M29.109,29.85l-8.252,8.566L3.345,56.592" fill="none" stroke="#fff" stroke-linecap="square" stroke-width="9"/>
              </g>
            </g>
          </g>
          <g id="Group_292" data-name="Group 292">
            <path id="Path_255" data-name="Path 255" d="M138.427,172h-.076l-.194-.576V172h-.083v-.766h.086l.229.68.226-.68h.085V172h-.083v-.576Z" fill="#85c020"/>
          </g>
        </g>
      </g>
    </g>
  </g>
</svg>
