<svg xmlns="http://www.w3.org/2000/svg" xmlns:xlink="http://www.w3.org/1999/xlink" width="615.333" height="551" viewBox="0 0 615.333 551">
  <defs>
    <clipPath id="clip-path">
      <path id="Path_183" data-name="Path 183" d="M4758.579,5642.5s-178.672,84.971-389.836,76.337-563-258.809-624.552-97.93-140.578,303.453,126.008,335.953,735.317,23.153,828.244-52.287,419.522,2.765,466.5,0,257.3-176.2,134.874-244.5-206.357-90.2-330.985-69.071S4758.579,5642.5,4758.579,5642.5Z" transform="translate(-3617.16 -5257.856)" fill="rgba(99,227,68,0.13)"/>
    </clipPath>
    <clipPath id="clip-chef">
      <rect width="615.333" height="551"/>
    </clipPath>
  </defs>
  <g id="chef" clip-path="url(#clip-chef)">
    <rect width="615.333" height="551" fill="#fbfbfb"/>
    <g id="Group_264" data-name="Group 264" transform="translate(0 -236)">
      <path id="Path_105" data-name="Path 105" d="M4758.579,5642.5s-178.672,84.971-389.836,76.337-563-258.809-624.552-97.93-140.578,303.453,126.008,335.953,735.317,23.153,828.244-52.287,419.522,2.765,466.5,0,257.3-176.2,134.874-244.5-206.357-90.2-330.985-69.071S4758.579,5642.5,4758.579,5642.5Z" transform="translate(-3617.16 -5257.856)" fill="rgba(99,227,68,0.13)"/>
      <g id="Layer_2" transform="translate(1346.566 313.077)">
        <g id="Group_258" data-name="Group 258" transform="translate(31.434 49.924)">
          <path id="Path_140" data-name="Path 140" d="M219.046,80.595s-2.9-14.679-11.2-1.738c0,0-5.022,4.46,0,22.222,0,0,8.7,14.266,5.988,27.418a168.768,168.768,0,0,1-4.056,17.963l74.75,21.182L262.312,69.024Z" transform="translate(-71.041 -54.267)" fill="#2c353c"/>
          <ellipse id="Ellipse_30" data-name="Ellipse 30" cx="8.658" cy="15.066" rx="8.658" ry="15.066" transform="translate(107.04 299.792) rotate(66.796)" fill="#ffe6d3"/>
          <ellipse id="Ellipse_31" data-name="Ellipse 31" cx="5.985" cy="9.662" rx="5.985" ry="9.662" transform="matrix(0.011, 1, -1, 0.011, 109.041, 299.79)" fill="#ffe6d3"/>
          <ellipse id="Ellipse_32" data-name="Ellipse 32" cx="29.011" cy="32.054" rx="29.011" ry="32.054" transform="translate(141.409 14.757)" fill="#ffe6d3"/>
          <path id="Path_141" data-name="Path 141" d="M228.628,178.19s-47.387-26.784-81.9-9.271c0,0-23.307,21.5-28.715,48.545,0,0,0,13.151-13.907,12.37,0,0-15.452-.008-13.907-28.981,0,0,3.09-9.658-5.022-25.882,0,0-18.543-11.589-33.608,46.743,0,0-38.63,80.351-8.885,103.529,0,0,25.5,27.041,75.715,5.408,0,0,17.384-4.636,19.315-25.5,0,0-14.057,51.9-5.266,63.793a6.688,6.688,0,0,0,1.017,1.106c10.816,9.271,38.888,19.315,95.159,11.589,0,0,68.246-6.567,82.153-32.063,0,0,13.134-23.178,8.112-58.718,0,0-20.088-61.036-32.063-79.192C286.831,211.669,255.026,182.182,228.628,178.19Z" transform="translate(-31.434 -75.632)" fill="#fa8868"/>
          <path id="Path_142" data-name="Path 142" d="M254.552,300.666s0,47.9-13.907,58.2c0,0-61.808,40.691-72.625,50.992,0,0-9.271,12.362,10.3,9.787,0,0,125.677-14.164,138.039-22.663,0,0,24.981-18.8,26.784-41.463l-87.562-54.856" transform="translate(-61.994 -106.941)" fill="#fa8868"/>
          <path id="Path_143" data-name="Path 143" d="M254.333,145.721s4.894,12.58,2.833,22.386,22.148,3.368,22.148,3.368l-2.6-38.027Z" transform="translate(-82.12 -68.917)" fill="#ffe6d3"/>
          <path id="Path_144" data-name="Path 144" d="M254.552,300.666s0,47.9-13.907,58.2c0,0-61.808,40.691-72.625,50.992,0,0-9.271,12.362,10.3,9.787,0,0,125.677-14.164,138.039-22.663,0,0,24.981-18.8,26.784-41.463" transform="translate(-61.994 -106.941)" fill="none" stroke="#f7613e" stroke-miterlimit="10" stroke-width="2"/>
          <path id="Path_145" data-name="Path 145" d="M120.2,155.157s25.753-41.978,31.934,15.967c0,0,15.195-45.841-21.89-54.855,0,0-36.055-3.348-56.915,16.225Z" transform="translate(-40.962 -64.961)" fill="#fec94e"/>
          <path id="Path_146" data-name="Path 146" d="M69.182,132.379S54.76,125.8,59.4,139.453c0,0,32.965,20.86,55.628,22.921,0,0,10.3.257,4.636-5.151C119.66,157.222,76.908,139.984,69.182,132.379Z" transform="translate(-37.584 -68.313)" fill="#fedaa5"/>
          <ellipse id="Ellipse_33" data-name="Ellipse 33" cx="5.032" cy="2.902" rx="5.032" ry="2.902" transform="translate(57.105 56.432) rotate(24.576)" fill="#ff4b42"/>
          <ellipse id="Ellipse_34" data-name="Ellipse 34" cx="4.893" cy="3.013" rx="4.893" ry="3.013" transform="translate(74.502 69.614)" fill="#ff4b42"/>
          <ellipse id="Ellipse_35" data-name="Ellipse 35" cx="9.334" cy="15.066" rx="9.334" ry="15.066" transform="translate(51.385 67.353) rotate(18.529)" fill="#ffe6d3"/>
          <ellipse id="Ellipse_36" data-name="Ellipse 36" cx="2.704" cy="3.64" rx="2.704" ry="3.64" transform="translate(86.31 53.833) rotate(-22.13)" fill="#ff4b42"/>
          <path id="Path_147" data-name="Path 147" d="M223.641,74.169s12.864-10.279,26-5.129c0,0,11.846,2.318,11.074,16.225,0,0-1.8,5.408,3.09,2.575,0,0,3.864-3.348,3.348,6.953,0,0,.515,12.877-1.8,11.846,0,0-4.892-3.09-5.15,2.318a55.359,55.359,0,0,1,4.12,21.376s-6.439,59.234-12.877,67.99c0,0-12.876,55.529,18.543,49.655,0,0,20.6-1.754,33.48-15.146,0,0,12.361-8.757,36.054,1.03,0,0,29.36,19.057,45.842-13.907,0,0,23.629-43.845,0-47.9,0,0-20.024.193-22.936-24.208,0,0-2.3-25.624-44.539-31.934,0,0-21.5-9.658-32.449-51.231,0,0-22.663-33.2-64.383,0C221.054,64.681,212.321,86.379,223.641,74.169Z" transform="translate(-73.822 -49.924)" fill="#2c353c"/>
          <ellipse id="Ellipse_37" data-name="Ellipse 37" cx="3.09" cy="2.121" rx="3.09" ry="2.121" transform="translate(101.906 64.065)" fill="#ff4b42"/>
          <path id="Path_148" data-name="Path 148" d="M238.144,110.512s-4.636,6.318,0,5.859" transform="translate(-77.97 -63.701)" fill="none" stroke="#f5cfb3" stroke-miterlimit="10" stroke-width="3"/>
        </g>
      </g>
      <g id="Layer_1" transform="translate(664.272 270.826)">
        <g id="Group_262" data-name="Group 262" transform="translate(114.728 74.174)">
          <path id="Path_149" data-name="Path 149" d="M227.716,129.45c0,21.405-14.61,38.765-32.626,38.765-17.617,0-31.979-16.6-32.6-37.346,0,0,38.206-38.339,59.15-23.951A43.718,43.718,0,0,1,227.716,129.45Z" transform="translate(-120.122 -77.507)" fill="#ffe6d3"/>
          <path id="Path_150" data-name="Path 150" d="M415.6,126.681c0,7.165-42.509,14.552-93.215,14.552s-93.215-7.388-93.215-14.552,43.913-12.973,94.618-12.973S415.6,119.516,415.6,126.681Z" transform="translate(-127.652 -78.639)" fill="#ff5904"/>
          <g id="Group_259" data-name="Group 259" transform="translate(158.82 40.331)">
            <path id="Path_151" data-name="Path 151" d="M293.767,132.751s1.708-3.729,14.418-3.155" transform="translate(-293.767 -120.757)" fill="none" stroke="#85c020" stroke-miterlimit="10" stroke-width="1.283"/>
            <path id="Path_152" data-name="Path 152" d="M370.321,124.149c-.682-.284-5.292-1.961-14.786.267,0,0-6.545,2.737-10.095,6.128,0,0-7.559,5.344-15.628,5.62h0a28.247,28.247,0,0,1-3.871.259c-8.752,0-15.843-3.752-15.843-8.392s7.091-8.391,15.843-8.391a29.224,29.224,0,0,1,3.837.249c.16.018.33.043.477.069h.013c.853.224,2.709.7,4.608,1.144.012,0,.022.009.035.009,1.787.421,3.608.827,4.689.99C347,123.2,356,116.8,370.321,124.149Z" transform="translate(-295.611 -119.64)" fill="#85c020"/>
          </g>
          <path id="Path_153" data-name="Path 153" d="M322.553,109.184c-.115-.027-.247-.053-.373-.071v-.053Z" transform="translate(-138.155 -78.114)" fill="none" stroke="#231f20" stroke-miterlimit="10" stroke-width="0.2"/>
          <path id="Path_154" data-name="Path 154" d="M319.746,129.947s6.832.483,9.1-.228,6.2-2.3,7.838-1.718" transform="translate(-137.88 -80.238)" fill="none" stroke="#73a600" stroke-miterlimit="10" stroke-width="1"/>
          <g id="Group_260" data-name="Group 260" transform="translate(42.342 13.169)">
            <path id="Path_155" data-name="Path 155" d="M221.636,105.262c-20.944-14.388-59.15,23.951-59.15,23.951-.018-.47-.027-.94-.027-1.419,0-21.414,14.61-38.774,32.626-38.774C206.033,89.02,215.729,95.434,221.636,105.262Z" transform="translate(-162.46 -89.02)" fill="#ffc715"/>
            <ellipse id="Ellipse_38" data-name="Ellipse 38" cx="3.418" cy="1.573" rx="3.418" ry="1.573" transform="matrix(0.804, -0.595, 0.595, 0.804, 8.772, 8.559)" fill="#fa0"/>
          </g>
          <path id="Path_156" data-name="Path 156" d="M222.5,103.87c-17.343-11.913-46.518,12.321-56.036,21.006.39-.506,16.934-21.92,34.667-36.76h.01c10.626-8.88,21.679-15.417,29.929-13.652C231.065,74.463,252.949,71.492,222.5,103.87Z" transform="translate(-120.57 -74.174)" fill="#fa0"/>
          <line id="Line_4" data-name="Line 4" x1="0.009" y2="0.009" transform="translate(142.261 7.27)" fill="none" stroke="#231f20" stroke-miterlimit="10" stroke-width="1"/>
          <path id="Path_157" data-name="Path 157" d="M205.12,129.133l-.009.009" transform="translate(-124.935 -80.381)" fill="none" stroke="#231f20" stroke-miterlimit="10" stroke-width="1"/>
          <path id="Path_158" data-name="Path 158" d="M115.021,261.461s18.134,139.951,51.842,167.007c0,0,157.012,49.232,186.285-3.548,0,0,24.691-127.718-23.211-211.408,0,0-42.876-63.378-135.575-45.148,0,0-68.3,9.063-79.393,72.045,0,0-6.209,91.665,44.354,118.868,0,0,20.7,15.08,68.9,0,0,0,83.088-29.269,85.454-92.105,0,0-1.182-16.117-12.123-3.7,0,0-26.02,45.24-72.148,18.924,0,0-44.058-17.15-46.423-47.31" transform="translate(-114.728 -84.439)" fill="#6db47b" stroke="#23503f" stroke-miterlimit="10" stroke-width="1"/>
          <path id="Path_159" data-name="Path 159" d="M214.5,122.667l7.1,10.365-5.471,1.757" transform="translate(-125.995 -79.65)" fill="none" stroke="#f5cfb3" stroke-miterlimit="10" stroke-width="3"/>
          <g id="Group_261" data-name="Group 261" transform="translate(190.962 150.045)">
            <path id="Path_160" data-name="Path 160" d="M345.746,261.221s11.31-6.875,7.318-13.084c0,0-4.879-8.649-18.628,6.542,0,0-9.98,11.865,0,16.3,0,0,16.189,8.8,29.717-14.009,0,0,7.49-22.784-11.582-9.477" transform="translate(-330 -243.321)" fill="#ffe6d3"/>
            <path id="Path_161" data-name="Path 161" d="M345.746,261.221s11.31-6.875,7.318-13.084c0,0-4.879-8.649-18.628,6.542,0,0-9.98,11.865,0,16.3,0,0,16.189,8.8,29.717-14.009,0,0,7.49-22.784-11.582-9.478" transform="translate(-330 -243.321)" fill="none" stroke="#f5cfb3" stroke-miterlimit="10" stroke-width="1"/>
          </g>
          <path id="Path_162" data-name="Path 162" d="M230.333,131.586v96.986s71.853,33.265,183.624-.739v-99.5S322.885,159.084,230.333,131.586Z" transform="translate(-127.783 -80.29)" fill="#fff" stroke="#ff5904" stroke-miterlimit="10" stroke-width="4"/>
          <path id="Path_163" data-name="Path 163" d="M351.654,256.877s4.443-7.411.862-9.753-8-.656-11,1.825-8.355,7.977-8.311,8.613S349.494,259.214,351.654,256.877Z" transform="translate(-139.4 -93.579)" fill="#ffe6d3"/>
          <path id="Path_164" data-name="Path 164" d="M433.663,245.928" transform="translate(-150.745 -93.57)" fill="none" stroke="#f5cfb3" stroke-miterlimit="10" stroke-width="1"/>
          <path id="Path_165" data-name="Path 165" d="M350.258,257.993c1.719-1.552,4.212-7.878,3.1-9.614,0,0-4.879-8.649-18.628,6.542,0,0-9.98,11.865,0,16.3,0,0,16.189,8.8,29.717-14.009,0,0,.116.2.534-1.89" transform="translate(-139.071 -93.57)" fill="none" stroke="#f5cfb3" stroke-miterlimit="10" stroke-width="1"/>
          <path id="Path_166" data-name="Path 166" d="M413.958,168.783c0,7.165-41.106,12.973-91.812,12.973s-91.812-5.809-91.812-12.973" transform="translate(-127.783 -84.858)" fill="#fff" stroke="#ff5904" stroke-miterlimit="10" stroke-width="4"/>
          <path id="Path_167" data-name="Path 167" d="M413.958,205.053c0,7.165-41.106,12.973-91.812,12.973s-91.812-5.809-91.812-12.973" transform="translate(-127.783 -88.954)" fill="none" stroke="#ff5904" stroke-miterlimit="10" stroke-width="4"/>
        </g>
      </g>
      <g id="Mask_Group_1" data-name="Mask Group 1" clip-path="url(#clip-path)">
        <g id="Layer_2-2" data-name="Layer_2" transform="translate(80.285 264.463)">
          <g id="Group_263" data-name="Group 263">
            <path id="Path_168" data-name="Path 168" d="M15.715,233.771S16,253.936,27.5,252.968c0,0,13.25.282,11.5-15.468S15.715,233.771,15.715,233.771Z" fill="#fcd260"/>
            <path id="Path_169" data-name="Path 169" d="M201.5,209.064s-20.5-10.75-41-11.5c0,0-17.5-2.25-31.5,14,0,0-9.5,8.75-14.25,27.75,0,0-6.5,26.25,18,64.25L169,381.5s-1.75,24.75-14.5,37.5,72.833,79.5,145.5,22.25c0,0,63.334-92.648,30.667-188.949,0,0-33.333-57.3-79.52-48.967C200.541,212.464,201.5,209.064,201.5,209.064Z" fill="#fff" stroke="#f2f2f2" stroke-miterlimit="10" stroke-width="1"/>
            <path id="Path_170" data-name="Path 170" d="M243.53,224.875s20.834,21.881,21.436,73.422c0,0,3.806,33.063-5.409,75.853,0,0-6.411,44.733-16.027,67.1" fill="none" stroke="#f2f2f2" stroke-miterlimit="10" stroke-width="0.883"/>
            <ellipse id="Ellipse_39" data-name="Ellipse 39" cx="32.875" cy="34.375" rx="32.875" ry="34.375" transform="translate(199.5 147.25)" fill="#ffe6d5"/>
            <path id="Path_171" data-name="Path 171" d="M169.183,149.378s2.586-2.292,10.419,0c0,0,12.329,2.125,20.165,18.958l1.647,3.459s17.356-15.385,53.6-14.882a395.252,395.252,0,0,0-3.084-48.246A101.6,101.6,0,0,0,241.1,78.5,47.892,47.892,0,0,0,225.768,62s-11.333-3.667-22.333,1.333c0,0-6.612,2.747-9.086,9.269a30.933,30.933,0,0,0-21.737-6.308s-8.829-.17-15.971,8.642.79,23.685.79,23.685-13.711-1.247-18.447,5.354c0,0-10.74,10.761-8.3,32.768,0,0,1.63,14.229,8.035,22.806,0,0,3.529,5.815,9.03,5.821C147.75,165.37,161.491,166.506,169.183,149.378Z" fill="#fff" stroke="#f2f2f2" stroke-miterlimit="10" stroke-width="2"/>
            <ellipse id="Ellipse_40" data-name="Ellipse 40" cx="5.319" cy="5.5" rx="5.319" ry="5.5" transform="translate(251.884 244.5)" fill="#231f20"/>
            <path id="Path_172" data-name="Path 172" d="M69.5,236.25s-19.75.75-26.5-1.5c0,0-13.25-10.5-20.75-6,0,0-8.75,3.24-6,7.62,0,0,.5,5.38,11,5.38,0,0,7.25-.25,11.75-2.25a26.128,26.128,0,0,0,20.779,3.6S74.5,242,75.75,240.5,69.5,236.25,69.5,236.25Z" fill="#fcd260"/>
            <ellipse id="Ellipse_41" data-name="Ellipse 41" cx="5.25" cy="5" rx="5.25" ry="5" transform="translate(260.495 326.75)" fill="#231f20"/>
            <ellipse id="Ellipse_42" data-name="Ellipse 42" cx="4.875" cy="3.75" rx="4.875" ry="3.75" transform="translate(246.272 406)" fill="#231f20"/>
            <path id="Path_173" data-name="Path 173" d="M240,194.5s-9-15-35.25-3.75c0,0-11.75,2.75-10.584,26.75a31.669,31.669,0,0,0,7.251,17.334s5.417,6.25,7.75,7.667c0,0,1.917,1.5,5.75.667,0,0-9.833-8.5-5.417-19.417,0,0,.749-4.75,14.083-11.5,0,0,1.417-1.25,9.167.083,0,0,2.667,1.167,6.167-2.667C238.917,209.667,244.667,204.583,240,194.5Z" fill="#231f20" stroke="#231f20" stroke-miterlimit="10" stroke-width="1"/>
            <path id="Path_174" data-name="Path 174" d="M220.52,320.115c-7.75,54.75-46.5,62-46.5,62-28.75,15-48.25-5.75-48.25-5.75-23-14.5-23.5-58.25-23.5-58.25-3-27.75-9.5-39.25-9.5-39.25-1.25-8.5-17.5-14.5-3.5-18.5s26.25,21.5,27.5,23.75,7.188,3.043,7.188,3.043Z" fill="#fff"/>
            <path id="Path_175" data-name="Path 175" d="M393.79,250.465s5.417,15.342,13.211,19.368c0,0,7.6,7.075,13.3-10.177,0,0,3.382-10.562-2.217-17.1a31.3,31.3,0,0,0-18.09-12.385s-9.9-2.736-14.366,13.173c0,0-3.012,10.045,5.874,18.971,0,0,5.924,3.7,4.859-5.9" fill="#ffe6d5"/>
            <path id="Path_176" data-name="Path 176" d="M124.423,287.158s-5.938-.793-7.188-3.043-13.5-27.75-27.5-23.75,2.25,10,3.5,18.5c0,0,6.5,11.5,9.5,39.25,0,0,.5,43.75,23.5,58.25,0,0,19.5,20.75,48.25,5.75,0,0,38.75-7.25,46.5-62" fill="none" stroke="#f2f2f2" stroke-miterlimit="10" stroke-width="2"/>
            <path id="Path_177" data-name="Path 177" d="M328.334,277.334s16-2,24-31.333c0,0,8.334-23.667,8.334-34.667,0,0,2-8,10.333,0S384,234,394,234.667s1.667-23.391,0-34.029S385.84,139,363.587,140.333c0,0-20.253-12.409-42.253,31.462,0,0-17,34.872-45.666,32.538" fill="#fff" stroke="#f2f2f2" stroke-miterlimit="10" stroke-width="2"/>
            <path id="Path_178" data-name="Path 178" d="M241.823,201.748a9.455,9.455,0,0,0,8.69,7.752s2.111,1.5,8.236-2.625a30.869,30.869,0,0,1,10.125-5.127s7.25-1.248,8.5,6.5c0,0,3.125,11.375,0,16.625,0,0,6.125-2.75,5.125-18.5,0,0,1-6.118-4-19.809,0,0-3.125-6.566-12.375-9.191,0,0-10.348-3.625-15.611,3.125C250.514,180.5,237.9,184.495,241.823,201.748Z" fill="#231f20"/>
            <ellipse id="Ellipse_43" data-name="Ellipse 43" cx="9.333" cy="3.333" rx="9.333" ry="3.333" transform="translate(373.502 292.087) rotate(-41.928)" fill="#ff4d49"/>
            <ellipse id="Ellipse_44" data-name="Ellipse 44" cx="13.167" cy="4.702" rx="13.167" ry="4.702" transform="translate(376.235 340.183) rotate(-41.928)" fill="#ff4d49"/>
            <ellipse id="Ellipse_45" data-name="Ellipse 45" cx="11.979" cy="11.469" rx="11.979" ry="11.469" transform="translate(230.354 167.729)" fill="#ffe6d5"/>
            <ellipse id="Ellipse_46" data-name="Ellipse 46" cx="9.333" cy="3.333" rx="9.333" ry="3.333" transform="translate(409.157 294.914) rotate(23.904)" fill="#ff4d49"/>
            <ellipse id="Ellipse_47" data-name="Ellipse 47" cx="12.311" cy="4.396" rx="12.311" ry="4.396" transform="translate(417.58 339.554) rotate(23.904)" fill="#ff4d49"/>
            <path id="Path_179" data-name="Path 179" d="M168.917,149.211s2.586-2.292,10.419,0c0,0,12.329,2.125,20.165,18.958l1.647,3.459s17.356-15.385,53.6-14.882a395.252,395.252,0,0,0-3.084-48.246,101.6,101.6,0,0,0-10.833-30.167,47.892,47.892,0,0,0-15.333-16.5s-11.333-3.667-22.333,1.333c0,0-12.833,4.833-10.5,24.5" fill="none" stroke="#f2f2f2" stroke-miterlimit="10" stroke-width="2"/>
            <path id="Path_180" data-name="Path 180" d="M194.926,72.868s-7.013-7.436-22.346-6.269a20.566,20.566,0,0,0-16.167,9.833s-7.167,7.835,1,21.168c0,0,1.167,4.333,9.5,9.5" fill="none" stroke="#f2f2f2" stroke-miterlimit="10" stroke-width="2"/>
            <path id="Path_181" data-name="Path 181" d="M77.5,242.583s-15.916-4.326-23.416,1.5c0,0-10,3.58,1.75,21.33,0,0,7.25,10.75,15.75,9,0,0,10.75,0,20-11.5,0,0,7.5-9-3.75-24.5,0,0-7-10-19.25-6.25,0,0-6.25,4,2.5,9.25" fill="#ffe6d5"/>
            <ellipse id="Ellipse_48" data-name="Ellipse 48" cx="9.5" cy="4.512" rx="9.5" ry="4.512" transform="translate(18.5 230.605)" fill="#ffb600"/>
            <path id="Path_182" data-name="Path 182" d="M233.034,171.9a12.15,12.15,0,0,1,9.3-4.251,11.75,11.75,0,0,1,11.979,11.5c0,6.353-6.631,11.439-13.247,11.439" fill="none" stroke="#f5cfb3" stroke-miterlimit="10" stroke-width="1"/>
          </g>
        </g>
      </g>
    </g>
  </g>
</svg>
